# This file uses centimeters as units for non-parametric coordinates.

mtllib stair2.mtl
g default
v -52.458759 22.081608 -54.659893
v -64.288094 32.365891 -54.528000
v -52.458759 32.365891 -54.659893
v -64.133560 32.361588 -51.793308
v -64.133560 22.063261 -51.793308
v -52.442986 22.063261 -51.929199
v -52.442986 32.361588 -51.929199
v -64.133560 31.210085 -51.793308
v -52.442986 31.210085 -51.929199
v -64.108574 31.210085 -49.640511
v -64.108574 22.083811 -49.640511
v -52.417927 22.083811 -49.776417
v -52.417927 31.210085 -49.776417
v -64.108574 30.157995 -49.640511
v -52.417927 30.157995 -49.776417
v -64.083672 30.157995 -47.498222
v -64.083672 22.113663 -47.498222
v -52.393051 22.083811 -47.634106
v -52.393051 30.157995 -47.634106
v -64.083672 29.024622 -47.498222
v -52.393051 29.024622 -47.634106
v -64.056305 29.024622 -45.146011
v -64.056305 22.113663 -45.146011
v -52.355656 22.083162 -45.282040
v -52.365688 29.024622 -45.281891
v -64.066353 27.894844 -45.145885
v -52.355656 27.894844 -45.282040
v -64.041512 27.894844 -43.010567
v -64.041512 22.083162 -43.010567
v -52.330791 22.081125 -43.146736
v -52.330791 27.894844 -43.146736
v -64.041512 26.735273 -43.010567
v -64.041512 22.081125 -43.010567
v -52.330791 26.735273 -43.146736
v -64.017982 26.735273 -40.984642
v -64.017982 22.081125 -40.984642
v -52.307194 22.081125 -41.120811
v -52.307194 26.735273 -41.120811
v -64.017982 25.341570 -40.984642
v -64.017982 22.080551 -40.984642
v -52.307194 22.080551 -41.120811
v -52.307194 25.341570 -41.120811
v -63.995361 25.341570 -39.038258
v -63.995361 22.080551 -39.038258
v -52.284588 22.080551 -39.174400
v -52.284588 25.341570 -39.174400
v -63.995361 23.903536 -39.038258
v -52.284588 23.903536 -39.174400
v -63.971752 23.903536 -37.323090
v -63.971752 22.066463 -37.323090
v -52.260990 22.066463 -37.382729
v -52.260990 23.903536 -37.382729
v -73.929840 32.365891 -54.528000
v -73.775307 22.063261 -51.793308
v -73.775307 32.361588 -51.793308
v -73.775307 31.210085 -51.793308
v -73.750320 22.083811 -49.640511
v -73.750320 31.210085 -49.640511
v -73.750320 30.157995 -49.640511
v -73.725410 22.113663 -47.498222
v -73.725410 30.157995 -47.498222
v -73.725410 29.024622 -47.498222
v -73.698051 22.113663 -45.146011
v -73.698051 29.024622 -45.146011
v -73.708099 27.894844 -45.145885
v -73.683250 22.083162 -43.010567
v -73.683250 27.894844 -43.010567
v -73.683250 26.735273 -43.010567
v -73.683250 22.081125 -43.010567
v -73.659729 22.081125 -40.984642
v -73.659729 26.735273 -40.984642
v -73.659729 25.341570 -40.984642
v -73.659729 22.080551 -40.984642
v -73.637100 22.080551 -39.038258
v -73.637100 25.341570 -39.038258
v -73.637100 23.903536 -39.038258
v -73.613495 22.066463 -37.323090
v -73.613495 23.903536 -37.323090
v -85.550964 22.081608 -54.528000
v -85.550964 32.365891 -54.528000
v -85.396423 22.063261 -51.793308
v -85.396423 32.361588 -51.793308
v -85.396423 31.210085 -51.793308
v -85.371445 22.083811 -49.640511
v -85.371445 31.210085 -49.640511
v -85.371445 30.157995 -49.640511
v -85.346527 22.113663 -47.498222
v -85.346527 30.157995 -47.498222
v -85.346527 29.024622 -47.498222
v -85.319168 22.113663 -45.146011
v -85.319168 29.024622 -45.146011
v -85.329224 27.894844 -45.145885
v -85.304367 22.083162 -43.010567
v -85.304367 27.894844 -43.010567
v -85.304367 26.735273 -43.010567
v -85.304367 22.081125 -43.010567
v -85.280853 22.081125 -40.984642
v -85.280853 26.735273 -40.984642
v -85.280853 25.341570 -40.984642
v -85.280853 22.080551 -40.984642
v -85.258224 22.080551 -39.038258
v -85.258224 25.341570 -39.038258
v -85.258224 23.903536 -39.038258
v -85.234619 22.066463 -37.323090
v -85.234619 23.903536 -37.323090
vt 0.730549 0.654189
vt 0.730549 0.654189
vt 0.730549 0.654189
vt 0.745235 0.654189
vt 0.745235 0.654189
vt 0.737892 0.654189
vt 0.737892 0.654189
vt 0.737892 0.654189
vt 0.737892 0.654189
vt 0.745235 0.654189
vt 0.752577 0.654189
vt 0.752577 0.654189
vt 0.752577 0.654189
vt 0.752577 0.654189
vt 0.767262 0.654189
vt 0.767262 0.654189
vt 0.759920 0.654189
vt 0.759920 0.654189
vt 0.759920 0.654189
vt 0.767262 0.654189
vt 0.091748 0.977784
vt 0.091748 0.826768
vt 0.131904 0.826499
vt 0.131904 0.977721
vt 0.211184 0.826768
vt 0.211184 0.977784
vt 0.171086 0.977721
vt 0.171086 0.826499
vt 0.171086 0.960812
vt 0.139474 0.960812
vt 0.139474 0.826801
vt 0.218406 0.977707
vt 0.218406 0.826485
vt 0.218406 0.960799
vt 0.225749 0.960799
vt 0.225749 0.826485
vt 0.257361 0.826787
vt 0.257361 0.960799
vt 0.264297 0.960236
vt 0.264297 0.826224
vt 0.264297 0.944787
vt 0.345066 0.944785
vt 0.345066 0.826222
vt 0.376523 0.826661
vt 0.376523 0.944785
vt 0.337638 0.826234
vt 0.337638 0.944796
vt 0.306180 0.944796
vt 0.306180 0.826234
vt 0.306180 0.928154
vt 0.271640 0.928154
vt 0.271642 0.826224
vt 0.383614 0.944346
vt 0.383614 0.826222
vt 0.383614 0.927704
vt 0.398299 0.927704
vt 0.398299 0.826222
vt 0.432839 0.826222
vt 0.432839 0.927704
vt 0.477233 0.739677
vt 0.477231 0.654785
vt 0.508589 0.654337
vt 0.508589 0.739677
vt 0.470038 0.654367
vt 0.470038 0.739707
vt 0.438683 0.739707
vt 0.438683 0.654337
vt 0.523122 0.722532
vt 0.523122 0.654190
vt 0.552871 0.654190
vt 0.552871 0.722532
vt 0.589584 0.654190
vt 0.589584 0.722532
vt 0.559835 0.722532
vt 0.559835 0.654190
vt 0.515780 0.654198
vt 0.515780 0.722540
vt 0.515780 0.702075
vt 0.515780 0.654190
vt 0.596548 0.702075
vt 0.596548 0.654190
vt 0.625129 0.654190
vt 0.625129 0.702075
vt 0.660006 0.654189
vt 0.660006 0.702075
vt 0.631425 0.702075
vt 0.631425 0.654189
vt 0.666302 0.681165
vt 0.666302 0.654396
vt 0.691488 0.654189
vt 0.691488 0.681165
vt 0.723817 0.654396
vt 0.723817 0.681165
vt 0.697508 0.681165
vt 0.697508 0.654189
vt 0.063903 0.022447
vt 0.061966 0.196151
vt 0.021810 0.193882
vt 0.023805 0.022216
vt 0.061966 0.337732
vt 0.021810 0.335463
vt 0.061966 0.508379
vt 0.021810 0.506110
vt 0.296069 0.022584
vt 0.294074 0.194250
vt 0.262462 0.193883
vt 0.264457 0.022216
vt 0.294074 0.335831
vt 0.262462 0.335464
vt 0.294074 0.506478
vt 0.262462 0.506111
vt 0.336299 0.022581
vt 0.334304 0.194248
vt 0.302846 0.193883
vt 0.304841 0.022216
vt 0.334304 0.335830
vt 0.302846 0.335464
vt 0.334304 0.506476
vt 0.302846 0.506110
vt 0.254942 0.022617
vt 0.252947 0.194285
vt 0.218406 0.193883
vt 0.220402 0.022216
vt 0.252947 0.335866
vt 0.218406 0.335464
vt 0.252947 0.506512
vt 0.218406 0.506110
vt 0.103075 0.022581
vt 0.101075 0.194543
vt 0.069720 0.194178
vt 0.071719 0.022216
vt 0.101075 0.336124
vt 0.069720 0.335759
vt 0.101075 0.506770
vt 0.069720 0.506405
vt 0.174894 0.022562
vt 0.172894 0.194524
vt 0.143145 0.194179
vt 0.145145 0.022216
vt 0.172894 0.336105
vt 0.143145 0.335760
vt 0.172894 0.506752
vt 0.143145 0.506406
vt 0.212274 0.022548
vt 0.210275 0.194511
vt 0.181694 0.194179
vt 0.183693 0.022216
vt 0.210275 0.336092
vt 0.181694 0.335760
vt 0.210275 0.506739
vt 0.181694 0.506406
vt 0.137289 0.022562
vt 0.135290 0.194525
vt 0.110104 0.194178
vt 0.110980 0.022216
vt 0.135290 0.336106
vt 0.110104 0.335759
vt 0.135290 0.506753
vt 0.110104 0.506406
vt 0.370206 0.194179
vt 0.343230 0.194179
vt 0.343230 0.022216
vt 0.370206 0.022216
vt 0.370206 0.335760
vt 0.343230 0.335760
vt 0.370206 0.506406
vt 0.343230 0.506406
vt 0.084793 0.687859
vt 0.084793 0.859526
vt 0.067884 0.859526
vt 0.067884 0.687859
vt 0.037259 0.687860
vt 0.037259 0.859527
vt 0.021810 0.859527
vt 0.021810 0.687860
vt 0.060664 0.687860
vt 0.060664 0.859527
vt 0.044021 0.859527
vt 0.044021 0.687860
vt 0.376271 0.022216
vt 0.477753 0.022216
vt 0.392861 0.022363
vt 0.477753 0.163797
vt 0.392861 0.163944
vt 0.477753 0.334443
vt 0.392861 0.334591
vt 0.391104 0.928152
vt 0.390956 0.826222
vt 0.391104 0.842812
vt 0.064778 0.512286
vt 0.064778 0.683953
vt 0.048188 0.684100
vt 0.048188 0.512138
vt 0.042409 0.512138
vt 0.042409 0.684100
vt 0.025382 0.684100
vt 0.025382 0.512138
vt 0.117916 0.510530
vt 0.117916 0.682493
vt 0.097451 0.682493
vt 0.097451 0.510530
vt 0.091672 0.510530
vt 0.091672 0.682492
vt 0.070556 0.682492
vt 0.070556 0.510530
vt 0.484574 0.022216
vt 0.635796 0.022216
vt 0.635796 0.163797
vt 0.484574 0.163797
vt 0.635796 0.334443
vt 0.484574 0.334443
vt 0.642439 0.022216
vt 0.776752 0.022216
vt 0.776752 0.163797
vt 0.642439 0.163797
vt 0.776752 0.334443
vt 0.642439 0.334443
vt 0.783783 0.022216
vt 0.917795 0.022216
vt 0.917795 0.163797
vt 0.783783 0.163797
vt 0.917795 0.334443
vt 0.783783 0.334443
vt 0.841353 0.338203
vt 0.959916 0.338203
vt 0.959916 0.479784
vt 0.841353 0.479784
vt 0.959916 0.650430
vt 0.841353 0.650430
vt 0.717450 0.338203
vt 0.835575 0.338203
vt 0.835575 0.479784
vt 0.717450 0.479784
vt 0.835575 0.650430
vt 0.717450 0.650430
vt 0.610190 0.338203
vt 0.711672 0.338203
vt 0.711672 0.479784
vt 0.610190 0.479784
vt 0.711672 0.650430
vt 0.610190 0.650430
vt 0.502930 0.338203
vt 0.604412 0.338203
vt 0.604412 0.479784
vt 0.502930 0.479784
vt 0.604412 0.650430
vt 0.502930 0.650430
vt 0.411812 0.338350
vt 0.497152 0.338350
vt 0.497152 0.479931
vt 0.411812 0.479931
vt 0.497152 0.650578
vt 0.411812 0.650578
vt 0.337691 0.510235
vt 0.406033 0.510235
vt 0.406033 0.651816
vt 0.337691 0.651816
vt 0.406033 0.822463
vt 0.337691 0.822463
vt 0.263570 0.510237
vt 0.331913 0.510237
vt 0.331913 0.651818
vt 0.263570 0.651818
vt 0.331913 0.822465
vt 0.263570 0.822465
vt 0.209906 0.510498
vt 0.257792 0.510498
vt 0.257792 0.652079
vt 0.209906 0.652079
vt 0.257792 0.822726
vt 0.209906 0.822726
vt 0.156242 0.510511
vt 0.204128 0.510511
vt 0.204128 0.652092
vt 0.156242 0.652092
vt 0.204128 0.822739
vt 0.156242 0.822739
vt 0.123695 0.510512
vt 0.150464 0.510512
vt 0.150464 0.652093
vt 0.123695 0.652093
vt 0.150464 0.822739
vt 0.123695 0.822739
vn 0.002793 0.000000 0.999996
vn 0.002793 0.000000 0.999996
vn 0.005092 0.000000 0.999987
vn 0.005092 0.000000 0.999987
vn -0.998407 0.000000 0.056421
vn -0.998407 0.000000 0.056421
vn -0.998407 0.000000 0.056421
vn -0.998407 0.000000 0.056421
vn 0.999983 0.000000 -0.005776
vn 0.999983 0.000000 -0.005776
vn 0.999983 0.000000 -0.005776
vn 0.999983 0.000000 -0.005776
vn 0.000018 0.999999 0.001574
vn 0.000010 0.999999 0.001574
vn 0.000010 0.999999 0.001574
vn 0.000018 0.999999 0.001574
vn -0.000000 0.000000 0.000000
vn -0.000000 0.000000 0.000000
vn -0.000000 0.000000 0.000000
vn 1.000000 0.000000 0.000000
vn 0.000000 0.000000 0.000000
vn 1.000000 0.000000 0.000000
vn 0.011623 0.000000 0.999932
vn 0.011623 0.000000 0.999932
vn 0.011623 0.000000 0.999932
vn 0.011623 0.000000 0.999932
vn -0.999933 0.000000 0.011602
vn -0.999933 0.000000 0.011602
vn -0.999933 0.000000 0.011602
vn -0.999933 0.000000 0.011602
vn 0.999932 0.000000 -0.011639
vn 0.999932 0.000000 -0.011639
vn 0.999932 0.000000 -0.011639
vn 0.999932 0.000000 -0.011639
vn 0.000000 1.000000 0.000000
vn 0.000000 1.000000 0.000000
vn 0.000000 1.000000 0.000000
vn 0.000000 1.000000 0.000000
vn 0.000000 0.000000 0.000000
vn 0.000000 0.000000 0.000000
vn 0.000000 0.000000 0.000000
vn 0.000000 0.000000 0.000000
vn 0.000000 0.000000 0.000000
vn 0.000000 0.000000 0.000000
vn 0.011624 0.000000 0.999932
vn 0.011624 0.000000 0.999932
vn 0.011624 0.000000 0.999932
vn 0.011624 0.000000 0.999932
vn -0.999932 0.000000 0.011631
vn -0.999932 0.000000 0.011631
vn -0.999932 0.000000 0.011631
vn -0.999932 0.000000 0.011631
vn 0.999933 0.000000 -0.011611
vn 0.999933 0.000000 -0.011611
vn 0.999933 0.000000 -0.011611
vn 0.999933 0.000000 -0.011611
vn 0.000000 1.000000 -0.000001
vn 0.000000 1.000000 0.000000
vn 0.000000 1.000000 0.000000
vn 0.000000 1.000000 -0.000001
vn -0.000000 0.000000 0.000000
vn -0.000000 0.000000 0.000000
vn -0.000000 0.000000 0.000000
vn 0.000000 0.000000 0.000000
vn 0.000000 0.000000 0.000000
vn 1.000000 0.000000 0.000000
vn 0.011623 0.000000 0.999932
vn 0.011623 0.000000 0.999932
vn 0.011623 0.000000 0.999932
vn 0.011623 0.000000 0.999932
vn -0.999932 0.000000 0.011630
vn -0.999932 0.000000 0.011630
vn -0.999932 0.000000 0.011630
vn -0.999932 0.000000 0.011630
vn 0.999905 0.000723 -0.013764
vn 0.999905 0.000723 -0.013764
vn 0.999905 0.000723 -0.013764
vn 0.999905 0.000723 -0.013764
vn 0.000000 1.000000 -0.000001
vn 0.000000 1.000000 -0.000000
vn 0.000000 1.000000 -0.000000
vn 0.000000 1.000000 -0.000001
vn -0.012744 0.000000 -0.999919
vn -0.000000 0.000022 -1.000000
vn -0.000016 0.000022 -1.000000
vn -0.014654 0.000000 -0.999893
vn -0.014654 0.000000 -0.999893
vn -0.014654 0.000000 -0.999893
vn 0.011624 -0.000010 0.999932
vn 0.011624 -0.000010 0.999932
vn 0.011624 -0.000010 0.999932
vn 0.011624 -0.000010 0.999932
vn -0.999957 -0.000868 0.009279
vn -0.999957 -0.000868 0.009279
vn -0.999957 -0.000868 0.009279
vn -0.999957 -0.000868 0.009279
vn 0.999932 0.000000 -0.011644
vn 0.999932 0.000000 -0.011644
vn 0.999932 0.000000 -0.011644
vn 0.999932 0.000000 -0.011644
vn 0.000000 1.000000 0.000000
vn 0.000000 1.000000 0.000000
vn 0.000000 1.000000 0.000000
vn 0.000000 1.000000 0.000000
vn 0.000000 0.000000 0.000000
vn 0.000000 0.000000 0.000000
vn 0.000000 0.000000 0.000000
vn 0.000000 0.000000 0.000000
vn 0.000000 0.000000 0.000000
vn 0.000000 0.000000 0.000000
vn 0.000000 0.000000 0.000000
vn 0.011627 0.000000 0.999932
vn 0.011627 0.000000 0.999932
vn 0.011627 0.000000 0.999932
vn 0.011627 0.000000 0.999932
vn -0.999933 0.000000 0.011606
vn -0.999933 0.000000 0.011606
vn -0.999933 0.000000 0.011606
vn -0.999933 0.000000 0.011606
vn 0.999932 0.000000 -0.011647
vn 0.999932 0.000000 -0.011647
vn 0.999932 0.000000 -0.011647
vn 0.999932 0.000000 -0.011647
vn 0.000000 1.000000 0.000000
vn 0.000000 1.000000 0.000001
vn 0.000000 1.000000 0.000001
vn 0.000000 1.000000 0.000000
vn 0.000000 0.000000 0.000000
vn 0.000000 0.000000 0.000000
vn 0.000000 0.000000 0.000000
vn 0.000000 0.000000 0.000000
vn -0.000000 0.000000 0.000000
vn -0.000000 0.000000 0.000000
vn -0.000000 0.000000 0.000000
vn -0.000000 0.000000 0.000000
vn 0.011627 0.000000 0.999932
vn 0.011627 0.000000 0.999932
vn 0.011627 0.000000 0.999932
vn 0.011627 0.000000 0.999932
vn -0.999932 0.000000 0.011625
vn -0.999932 0.000000 0.011625
vn -0.999932 0.000000 0.011625
vn -0.999932 0.000000 0.011625
vn 0.999933 0.000000 -0.011613
vn 0.999933 0.000000 -0.011613
vn 0.999933 0.000000 -0.011613
vn 0.999933 0.000000 -0.011613
vn 0.000000 1.000000 0.000001
vn 0.000000 1.000000 0.000000
vn 0.000000 1.000000 0.000000
vn 0.000000 1.000000 0.000001
vn 0.000000 0.000000 0.000000
vn 0.000000 0.000000 0.000000
vn 0.000000 0.000000 0.000000
vn 0.000000 0.000000 0.000000
vn 0.011625 0.000000 0.999932
vn 0.011625 0.000000 0.999932
vn 0.011625 0.000000 0.999932
vn 0.011625 0.000000 0.999932
vn -0.999905 0.000000 0.013761
vn -0.999905 0.000000 0.013761
vn -0.999905 0.000000 0.013761
vn -0.999905 0.000000 0.013761
vn 0.999913 0.000000 -0.013170
vn 0.999913 0.000000 -0.013170
vn 0.999913 0.000000 -0.013170
vn 0.999913 0.000000 -0.013170
vn 0.000000 1.000000 0.000001
vn 0.000000 1.000000 0.000000
vn 0.000000 1.000000 0.000000
vn 0.000000 1.000000 0.000001
vn 0.000000 0.000000 1.000000
vn 0.000000 0.000000 1.000000
vn 0.000000 0.000000 1.000000
vn 0.000000 0.000000 1.000000
vn 0.000000 0.999999 0.001573
vn 0.000000 0.999999 0.001573
vn 0.000000 0.000000 -1.000000
vn 0.000000 0.000000 -1.000000
vn 0.000000 0.000000 -1.000000
vn 0.000000 0.000000 -1.000000
vn 0.000000 0.000000 1.000000
vn 0.000000 0.000000 1.000000
vn 0.000000 0.000000 1.000000
vn 0.000000 0.000000 1.000000
vn 0.000000 1.000000 0.000000
vn 0.000000 1.000000 0.000000
vn 0.000000 0.000000 -1.000000
vn 0.000000 0.000000 -1.000000
vn 0.000000 0.000000 -1.000000
vn 0.000000 0.000000 -1.000000
vn 0.000000 0.000000 1.000000
vn 0.000000 0.000000 1.000000
vn 0.000000 0.000000 1.000000
vn 0.000000 0.000000 1.000000
vn 0.000000 1.000000 0.000001
vn 0.000000 1.000000 0.000001
vn 0.000000 0.000000 -1.000000
vn 0.000000 0.000000 -1.000000
vn 0.000000 0.000000 -1.000000
vn 0.000000 0.000000 -1.000000
vn 0.000000 0.000000 1.000000
vn 0.000000 0.000000 1.000000
vn 0.000000 0.000000 1.000000
vn 0.000000 0.000000 1.000000
vn 0.000000 1.000000 0.000000
vn 0.000000 1.000000 0.000000
vn 0.000000 0.000022 -1.000000
vn 0.000000 0.000022 -1.000000
vn 0.000000 0.000000 1.000000
vn 0.000000 0.000000 1.000000
vn 0.000000 0.000000 1.000000
vn 0.000000 0.000000 1.000000
vn 0.000000 1.000000 0.000000
vn 0.000000 1.000000 0.000000
vn 0.000000 0.000000 -1.000000
vn 0.000000 0.000000 -1.000000
vn 0.000000 0.000000 -1.000000
vn 0.000000 0.000000 -1.000000
vn 0.000000 0.000000 1.000000
vn 0.000000 0.000000 1.000000
vn 0.000000 0.000000 1.000000
vn 0.000000 0.000000 1.000000
vn 0.000000 1.000000 -0.000000
vn 0.000000 1.000000 0.000000
vn 0.000000 0.000000 -1.000000
vn 0.000000 0.000000 -1.000000
vn 0.000000 0.000000 -1.000000
vn 0.000000 0.000000 -1.000000
vn 0.000000 0.000000 1.000000
vn 0.000000 0.000000 1.000000
vn 0.000000 0.000000 1.000000
vn 0.000000 0.000000 1.000000
vn 0.000000 1.000000 -0.000000
vn 0.000000 1.000000 -0.000000
vn 0.000000 0.000000 -1.000000
vn 0.000000 0.000000 -1.000000
vn 0.000000 0.000000 -1.000000
vn 0.000000 0.000000 -1.000000
vn 0.000000 0.000000 1.000000
vn 0.000000 0.000000 1.000000
vn 0.000000 1.000000 0.000000
vn 0.000000 1.000000 0.000000
vn 0.000000 0.000000 1.000000
vn 0.000000 0.000000 1.000000
vn 0.000000 0.999999 0.001573
vn 0.000000 0.999999 0.001573
vn 0.000000 0.000000 -1.000000
vn 0.000000 0.000000 -1.000000
vn 0.000000 0.000000 1.000000
vn 0.000000 0.000000 1.000000
vn 0.000000 1.000000 0.000000
vn 0.000000 1.000000 0.000000
vn 0.000000 0.000000 -1.000000
vn 0.000000 0.000000 -1.000000
vn 0.000000 0.000000 1.000000
vn 0.000000 0.000000 1.000000
vn 0.000000 1.000000 0.000000
vn 0.000000 1.000000 0.000000
vn 0.000000 0.000000 -1.000000
vn 0.000000 0.000000 -1.000000
vn 0.000000 0.000000 1.000000
vn 0.000000 0.000000 1.000000
vn 0.000000 1.000000 0.000000
vn 0.000000 1.000000 0.000000
vn 0.000000 0.000022 -1.000000
vn 0.000000 0.000022 -1.000000
vn 0.000000 0.000000 1.000000
vn 0.000000 0.000000 1.000000
vn 0.000000 1.000000 0.000000
vn 0.000000 1.000000 0.000000
vn 0.000000 0.000000 -1.000000
vn 0.000000 0.000000 -1.000000
vn 0.000000 0.000000 1.000000
vn 0.000000 0.000000 1.000000
vn 0.000000 1.000000 -0.000001
vn 0.000000 1.000000 -0.000001
vn 0.000000 0.000000 -1.000000
vn 0.000000 0.000000 -1.000000
vn 0.000000 0.000000 1.000000
vn 0.000000 0.000000 1.000000
vn 0.000000 1.000000 0.000000
vn 0.000000 1.000000 0.000000
vn 0.000000 0.000000 -1.000000
vn 0.000000 0.000000 -1.000000
vn 0.000000 0.000000 1.000000
vn 0.000000 0.000000 1.000000
vn 0.000000 1.000000 0.000000
vn 0.000000 1.000000 0.000000
s 1
g polySurface65 polySurface41
usemtl lambert5SG
f 49/160/1 50/161/2 51/162/3 52/163/4
s off
f 80/21/5 79/22/6 81/23/7 82/24/8
f 1/25/9 3/26/10 7/27/11 6/28/12
s 2
f 3/96/13 2/97/14 4/98/15 7/99/16
s off
f 4/32/17 5/33/18 8/34/19
f 6/28/20 7/27/21 9/29/22
f 7/168/23 4/169/24 8/170/25 9/171/26
f 83/35/27 81/36/28 84/37/29 85/38/30
f 6/28/31 9/29/32 13/30/33 12/31/34
s 3
f 9/104/35 8/105/36 10/106/37 13/107/38
s off
f 10/39/39 11/40/40 14/41/41
f 12/2/42 13/1/43 15/3/44
f 13/172/45 10/173/46 14/174/47 15/175/48
f 86/42/49 84/43/50 87/44/51 88/45/52
f 12/46/53 15/47/54 19/48/55 18/49/56
s 4
f 15/112/57 14/113/58 16/114/59 19/115/60
s off
f 16/53/61 17/54/62 20/55/63
f 18/49/64 19/48/65 21/50/66
f 19/176/67 16/177/68 20/178/69 21/179/70
f 89/56/71 87/57/72 90/58/73 91/59/74
f 18/49/75 21/50/76 25/51/77 24/52/78
s 5
f 21/120/79 20/121/80 22/122/81 25/123/82
s 6
f 22/180/83 23/181/84 26/182/85
s off
f 24/187/86 25/188/87 27/189/88
f 25/190/89 22/191/90 26/192/91 27/193/92
f 92/60/93 90/61/94 93/62/95 94/63/96
f 24/64/97 27/65/98 31/66/99 30/67/100
s 7
f 27/128/101 26/129/102 28/130/103 31/131/104
s off
f 28/6/105 29/7/106 33/8/107 32/9/108
f 30/5/109 31/4/110 34/10/111
f 31/194/112 28/195/113 32/196/114 34/197/115
f 95/68/116 96/69/117 97/70/118 98/71/119
f 30/72/120 34/73/121 38/74/122 37/75/123
s 8
f 34/136/124 32/137/125 35/138/126 38/139/127
s off
f 35/11/128 36/12/129 40/13/130 39/14/131
f 37/76/132 38/77/133 42/78/134 41/79/135
f 38/198/136 35/199/137 39/200/138 42/201/139
f 99/80/140 100/81/141 101/82/142 102/83/143
f 41/84/144 42/85/145 46/86/146 45/87/147
s 9
f 42/144/148 39/145/149 43/146/150 46/147/151
s off
f 43/17/152 44/18/153 47/19/154
s 10
f 45/16/155 46/15/156 48/20/157
f 46/202/156 43/203/158 47/204/159 48/205/157
s off
f 103/88/160 101/89/161 104/90/162 105/91/163
f 45/92/164 48/93/165 52/94/166 51/95/167
s 11
f 48/152/168 47/153/169 49/154/170 52/155/171
s 12
usemtl lambert7SG
f 5/206/172 4/207/173 55/208/174 54/209/175
s 2
f 4/98/15 2/97/14 53/100/176 55/101/177
s 13
usemtl lambert5SG
f 8/212/178 5/213/179 54/214/180 56/215/181
s 14
usemtl lambert7SG
f 11/218/182 10/219/183 58/220/184 57/221/185
s 3
f 10/106/37 8/105/36 56/108/186 58/109/187
s 15
usemtl lambert5SG
f 14/224/188 11/225/189 57/226/190 59/227/191
s 16
usemtl lambert7SG
f 17/230/192 16/231/193 61/232/194 60/233/195
s 4
f 16/114/59 14/113/58 59/116/196 61/117/197
s 17
usemtl lambert5SG
f 20/236/198 17/237/199 60/238/200 62/239/201
s 18
usemtl lambert7SG
f 23/242/202 22/243/203 64/244/204 63/245/205
s 5
f 22/122/81 20/121/80 62/124/206 64/125/207
s 6
usemtl lambert5SG
f 26/182/85 23/181/84 63/183/208 65/184/209
s 19
usemtl lambert7SG
f 29/248/210 28/249/211 67/250/212 66/251/213
s 7
f 28/130/103 26/129/102 65/132/214 67/133/215
s 20
usemtl lambert5SG
f 32/254/216 33/255/217 69/256/218 68/257/219
s 21
usemtl lambert7SG
f 36/260/220 35/261/221 71/262/222 70/263/223
s 8
f 35/138/126 32/137/125 68/140/224 71/141/225
s 22
usemtl lambert5SG
f 39/266/226 40/267/227 73/268/228 72/269/229
s 23
usemtl lambert7SG
f 44/272/230 43/273/231 75/274/232 74/275/233
s 9
f 43/146/150 39/145/149 72/148/234 75/149/235
s 24
usemtl lambert5SG
f 47/278/236 44/279/237 74/280/238 76/281/239
s 1
usemtl lambert7SG
f 50/161/2 49/160/1 78/164/240 77/165/241
s 11
f 49/154/170 47/153/169 76/156/242 78/157/243
s 12
usemtl lambert5SG
f 54/209/175 55/208/174 82/210/244 81/211/245
s 2
f 55/101/177 53/100/176 80/102/246 82/103/247
s 13
f 56/215/181 54/214/180 81/216/248 83/217/249
s 14
f 57/221/185 58/220/184 85/222/250 84/223/251
s 3
f 58/109/187 56/108/186 83/110/252 85/111/253
s 15
f 59/227/191 57/226/190 84/228/254 86/229/255
s 16
f 60/233/195 61/232/194 88/234/256 87/235/257
s 4
f 61/117/197 59/116/196 86/118/258 88/119/259
s 17
f 62/239/201 60/238/200 87/240/260 89/241/261
s 18
f 63/245/205 64/244/204 91/246/262 90/247/263
s 5
f 64/125/207 62/124/206 89/126/264 91/127/265
s 6
f 65/184/209 63/183/208 90/185/266 92/186/267
s 19
f 66/251/213 67/250/212 94/252/268 93/253/269
s 7
f 67/133/215 65/132/214 92/134/270 94/135/271
s 20
f 68/257/219 69/256/218 96/258/272 95/259/273
s 21
f 70/263/223 71/262/222 98/264/274 97/265/275
s 8
f 71/141/225 68/140/224 95/142/276 98/143/277
s 22
f 72/269/229 73/268/228 100/270/278 99/271/279
s 23
f 74/275/233 75/274/232 102/276/280 101/277/281
s 9
f 75/149/235 72/148/234 99/150/282 102/151/283
s 24
f 76/281/239 74/280/238 101/282/284 103/283/285
s 1
f 77/165/241 78/164/240 105/166/286 104/167/287
s 11
f 78/157/243 76/156/242 103/158/288 105/159/289
