# This file uses centimeters as units for non-parametric coordinates.

mtllib stair1.mtl
g default
v 13.783031 0.000000 12.806306
v 2.059613 0.000000 12.806306
v 2.075594 10.279980 12.803170
v 2.075594 -0.039476 12.803170
v 13.767050 -0.039476 12.803170
v 13.767050 10.279980 12.803170
v 2.075594 10.279980 14.622471
v 2.075594 -0.039476 14.622471
v 13.767050 -0.039476 14.622471
v 13.767050 10.279980 14.622471
v 2.075594 9.128483 14.622471
v 2.075594 -0.018342 14.622471
v 13.767050 -0.018342 14.622471
v 13.767050 9.128483 14.622471
v 2.075594 9.128483 16.775394
v 2.075594 -0.018342 16.775394
v 13.767050 -0.018342 16.775394
v 13.767050 9.128483 16.775394
v 2.075594 8.076378 16.775394
v 2.075594 0.002206 16.775394
v 13.767050 0.002206 16.775394
v 13.767050 8.076378 16.775394
v 2.075594 8.076378 18.917843
v 2.075594 0.002206 18.917843
v 13.767050 0.002206 18.917843
v 13.767050 8.076378 18.917843
v 2.075594 6.943013 18.917843
v 2.075594 0.032055 18.917843
v 13.767050 0.032055 18.917843
v 13.767050 6.943013 18.917843
v 2.075594 6.943013 21.270195
v 2.075594 0.032055 21.270195
v 13.767050 0.032055 21.270195
v 13.767050 6.943013 21.270195
v 2.065551 5.813241 21.270195
v 2.065551 0.001559 21.270195
v 13.777094 0.001559 21.270195
v 13.777094 5.813241 21.270195
v 2.065551 5.813241 23.405663
v 2.065551 0.001559 23.405663
v 13.777094 0.001559 23.405663
v 13.777094 5.813241 23.405663
v 2.065551 4.653668 23.405663
v 2.065551 -0.000478 23.405663
v 13.777094 -0.000478 23.405663
v 13.777094 4.653668 23.405663
v 2.065551 4.653668 25.431711
v 2.065551 -0.000478 25.431711
v 13.777094 -0.000478 25.431711
v 13.777094 4.653668 25.431711
v 2.065551 3.259963 25.431711
v 2.065551 -0.001057 25.431711
v 13.777094 -0.001057 25.431711
v 13.777094 3.259963 25.431711
v 2.065551 3.259963 27.378229
v 2.065551 -0.001057 27.378229
v 13.777094 -0.001057 27.378229
v 13.777094 3.259963 27.378229
v 2.065551 1.821929 27.378229
v 2.065551 -0.015141 27.378229
v 13.777094 -0.015141 27.378229
v 13.777094 1.821929 27.378229
v 2.065551 1.821929 29.405046
v 2.065551 -0.015141 29.405046
v 13.777094 -0.015141 29.405046
v 13.777094 1.821929 29.405046
vt 0.561348 0.889540
vt 0.561348 0.889540
vt 0.561348 0.889540
vt 0.561348 0.889540
vt 0.555813 0.889540
vt 0.555813 0.889540
vt 0.555813 0.889540
vt 0.555813 0.889540
vt 0.332654 0.917039
vt 0.332654 0.643354
vt 0.380904 0.643354
vt 0.380904 0.917039
vt 0.435403 0.643354
vt 0.435403 0.917039
vt 0.387153 0.917039
vt 0.387153 0.643354
vt 0.441651 0.917039
vt 0.441651 0.643354
vt 0.441651 0.643914
vt 0.441651 0.886500
vt 0.448684 0.643354
vt 0.448684 0.917039
vt 0.448684 0.886500
vt 0.448684 0.643914
vt 0.455716 0.885939
vt 0.455716 0.643354
vt 0.512814 0.643354
vt 0.512814 0.885939
vt 0.576103 0.643354
vt 0.576103 0.885939
vt 0.519005 0.885939
vt 0.519005 0.643354
vt 0.582294 0.885939
vt 0.582294 0.643354
vt 0.582294 0.643898
vt 0.582294 0.858036
vt 0.589326 0.643354
vt 0.589326 0.885939
vt 0.589326 0.858036
vt 0.589326 0.643898
vt 0.596358 0.857491
vt 0.596358 0.643354
vt 0.653179 0.643354
vt 0.653179 0.857491
vt 0.653179 0.644145
vt 0.653179 0.827433
vt 0.715566 0.644145
vt 0.715566 0.827433
vt 0.840386 0.643354
vt 0.840386 0.857491
vt 0.783566 0.857491
vt 0.783566 0.643354
vt 0.783566 0.827433
vt 0.783566 0.644145
vt 0.721178 0.827433
vt 0.721178 0.644145
vt 0.860062 0.798020
vt 0.860062 0.643886
vt 0.916698 0.643886
vt 0.916698 0.798020
vt 0.951396 0.801620
vt 0.951396 0.955753
vt 0.894760 0.955753
vt 0.894760 0.801620
vt 0.845998 0.797541
vt 0.845998 0.643407
vt 0.845998 0.643354
vt 0.845998 0.766788
vt 0.853030 0.643407
vt 0.853030 0.797541
vt 0.853030 0.766788
vt 0.853030 0.643354
vt 0.829958 0.984526
vt 0.829958 0.861092
vt 0.883692 0.861092
vt 0.883692 0.984526
vt 0.824424 0.861092
vt 0.824424 0.984526
vt 0.770690 0.984526
vt 0.770690 0.861092
vt 0.889226 0.801635
vt 0.889226 0.925069
vt 0.889226 0.888107
vt 0.889226 0.801620
vt 0.765156 0.966470
vt 0.678670 0.966470
vt 0.678670 0.914845
vt 0.765156 0.914845
vt 0.678296 0.914845
vt 0.727017 0.914845
vt 0.678296 0.861092
vt 0.727017 0.861092
vt 0.672762 0.861091
vt 0.672762 0.947578
vt 0.621138 0.947578
vt 0.621138 0.861091
vt 0.566882 0.889540
vt 0.615603 0.889540
vt 0.615603 0.943294
vt 0.566882 0.943294
vt 0.843857 0.639753
vt 0.843857 0.329680
vt 0.892107 0.329680
vt 0.892107 0.639753
vt 0.838323 0.329680
vt 0.838323 0.639753
vt 0.790073 0.639753
vt 0.790073 0.329680
vt 0.685272 0.639753
vt 0.685272 0.329680
vt 0.742370 0.329680
vt 0.742370 0.639753
vt 0.679737 0.329680
vt 0.679737 0.639753
vt 0.622639 0.639753
vt 0.622639 0.329680
vt 0.520768 0.639753
vt 0.520768 0.329680
vt 0.577588 0.329680
vt 0.577588 0.639753
vt 0.515233 0.329680
vt 0.515233 0.639753
vt 0.458413 0.639753
vt 0.458413 0.329680
vt 0.348572 0.639753
vt 0.348572 0.329680
vt 0.410960 0.329680
vt 0.410960 0.639753
vt 0.343038 0.329680
vt 0.343038 0.639753
vt 0.280650 0.639753
vt 0.280650 0.329680
vt 0.341444 0.326080
vt 0.341444 0.015474
vt 0.398079 0.015474
vt 0.398079 0.326080
vt 0.461368 0.015474
vt 0.461368 0.326080
vt 0.404733 0.326080
vt 0.404733 0.015474
vt 0.511973 0.326080
vt 0.511973 0.015474
vt 0.565706 0.015474
vt 0.565706 0.326080
vt 0.625479 0.015474
vt 0.625479 0.326080
vt 0.571746 0.326080
vt 0.571746 0.015474
vt 0.682501 0.326080
vt 0.682501 0.015474
vt 0.734126 0.015474
vt 0.734126 0.326080
vt 0.792141 0.015474
vt 0.792141 0.326080
vt 0.740516 0.326080
vt 0.740516 0.015474
vt 0.849514 0.326080
vt 0.849514 0.015474
vt 0.903268 0.015474
vt 0.903268 0.326080
vt 0.951395 0.329680
vt 0.951395 0.640286
vt 0.897642 0.640286
vt 0.897642 0.329680
vt 0.108881 0.326080
vt 0.060159 0.326080
vt 0.060159 0.015474
vt 0.108881 0.015474
vt 0.052951 0.326395
vt 0.052951 0.015474
vt 0.053998 0.015898
vt 0.053998 0.325971
vt 0.783978 0.639753
vt 0.783978 0.329680
vt 0.784538 0.329680
vt 0.784538 0.639753
vt 0.778444 0.329680
vt 0.778444 0.639753
vt 0.747904 0.639753
vt 0.747904 0.329680
vt 0.616560 0.639753
vt 0.616560 0.329680
vt 0.617105 0.329680
vt 0.617105 0.639753
vt 0.611026 0.329680
vt 0.611026 0.639753
vt 0.583122 0.639753
vt 0.583122 0.329680
vt 0.452087 0.639753
vt 0.452087 0.329680
vt 0.452878 0.329680
vt 0.452878 0.639753
vt 0.446552 0.329680
vt 0.446552 0.639753
vt 0.416494 0.639753
vt 0.416494 0.329680
vt 0.114658 0.325814
vt 0.297946 0.325814
vt 0.298755 0.326080
vt 0.144621 0.326080
vt 0.297946 0.015741
vt 0.298755 0.015474
vt 0.114658 0.015741
vt 0.144621 0.015474
vt 0.334488 0.015741
vt 0.334488 0.325814
vt 0.304525 0.326080
vt 0.304525 0.015474
vt 0.468022 0.326080
vt 0.468022 0.015474
vt 0.468076 0.015474
vt 0.468076 0.326080
vt 0.505808 0.015474
vt 0.505808 0.326080
vt 0.475054 0.326080
vt 0.475054 0.015474
vt 0.631519 0.326080
vt 0.631519 0.015474
vt 0.631534 0.015474
vt 0.631534 0.326080
vt 0.675514 0.015474
vt 0.675514 0.326080
vt 0.638551 0.326080
vt 0.638551 0.015474
vt 0.798531 0.326080
vt 0.798531 0.015474
vt 0.798905 0.015474
vt 0.798905 0.326080
vt 0.843702 0.015474
vt 0.843702 0.326080
vt 0.805564 0.326080
vt 0.805564 0.015474
vt 0.326637 0.953426
vt 0.052951 0.953426
vt 0.052951 0.643354
vt 0.326637 0.643354
vn 0.000000 0.000000 1.000000
vn 0.000000 0.000000 1.000000
vn 0.000000 0.000000 1.000000
vn 0.000000 0.000000 1.000000
vn 0.000000 0.079183 -0.996860
vn 0.000000 0.079183 -0.996860
vn 0.000000 0.079183 -0.996860
vn 0.000000 0.079183 -0.996860
vn -1.000000 0.000000 0.000000
vn -1.000000 0.000000 0.000000
vn -1.000000 0.000000 0.000000
vn -1.000000 0.000000 0.000000
vn 0.000000 -1.000000 0.000000
vn 0.000000 -1.000000 0.000000
vn 0.000000 -1.000000 0.000000
vn 0.000000 -1.000000 0.000000
vn 1.000000 0.000000 0.000000
vn 1.000000 0.000000 0.000000
vn 1.000000 0.000000 0.000000
vn 1.000000 0.000000 0.000000
vn 0.000000 1.000000 0.000000
vn 0.000000 1.000000 0.000000
vn 0.000000 1.000000 0.000000
vn 0.000000 1.000000 0.000000
vn 0.000000 0.000000 0.000000
vn 0.000000 0.000000 0.000000
vn 1.000000 0.000000 0.000000
vn 1.000000 0.000000 0.000000
vn 0.000000 0.000000 1.000000
vn 0.000000 0.000000 1.000000
vn 0.000000 0.000000 1.000000
vn 0.000000 0.000000 1.000000
vn -0.000000 0.000000 0.000000
vn -0.000000 0.000000 0.000000
vn -1.000000 0.000000 0.000000
vn -1.000000 0.000000 0.000000
vn 0.000000 0.000000 1.000000
vn 0.000000 0.000000 1.000000
vn 0.000000 0.000000 1.000000
vn 0.000000 0.000000 1.000000
vn -1.000000 0.000000 0.000000
vn -1.000000 0.000000 0.000000
vn -1.000000 0.000000 0.000000
vn -1.000000 0.000000 0.000000
vn 0.000000 -1.000000 0.000000
vn 0.000000 -1.000000 0.000000
vn 0.000000 -1.000000 0.000000
vn 0.000000 -1.000000 0.000000
vn 1.000000 0.000000 0.000000
vn 1.000000 0.000000 0.000000
vn 1.000000 0.000000 0.000000
vn 1.000000 0.000000 0.000000
vn 0.000000 1.000000 0.000000
vn 0.000000 1.000000 0.000000
vn 0.000000 1.000000 0.000000
vn 0.000000 1.000000 0.000000
vn 0.000000 0.000000 0.000000
vn 0.000000 0.000000 0.000000
vn 1.000000 0.000000 0.000000
vn 1.000000 0.000000 0.000000
vn 0.000000 0.000000 1.000000
vn 0.000000 0.000000 1.000000
vn 0.000000 0.000000 1.000000
vn 0.000000 0.000000 1.000000
vn -1.000000 0.000000 0.000000
vn -1.000000 0.000000 0.000000
vn 0.000000 0.000000 1.000000
vn 0.000000 0.000000 1.000000
vn 0.000000 0.000000 1.000000
vn 0.000000 0.000000 1.000000
vn -1.000000 0.000000 0.000000
vn -1.000000 0.000000 0.000000
vn -1.000000 0.000000 0.000000
vn -1.000000 0.000000 0.000000
vn 0.000000 -1.000000 0.000000
vn 0.000000 -1.000000 0.000000
vn 0.000000 -1.000000 0.000000
vn 0.000000 -1.000000 0.000000
vn 1.000000 0.000000 0.000000
vn 1.000000 0.000000 0.000000
vn 1.000000 0.000000 0.000000
vn 1.000000 0.000000 0.000000
vn 0.000000 1.000000 0.000000
vn 0.000000 1.000000 0.000000
vn 0.000000 1.000000 0.000000
vn 0.000000 1.000000 0.000000
vn -1.000000 0.000000 0.000000
vn -1.000000 0.000000 0.000000
vn 0.000000 0.000000 1.000000
vn 0.000000 0.000000 1.000000
vn 0.000000 0.000000 1.000000
vn 0.000000 0.000000 1.000000
vn 1.000000 0.000000 0.000000
vn 1.000000 0.000000 0.000000
vn 0.000000 0.000000 1.000000
vn 0.000000 0.000000 1.000000
vn 0.000000 0.000000 1.000000
vn 0.000000 0.000000 1.000000
vn -1.000000 0.000000 0.000000
vn -1.000000 0.000000 0.000000
vn 0.000000 -1.000000 0.000000
vn 0.000000 -1.000000 0.000000
vn 0.000000 -1.000000 0.000000
vn 0.000000 -1.000000 0.000000
vn 1.000000 0.000000 0.000000
vn 1.000000 0.000000 0.000000
vn 0.000000 1.000000 0.000000
vn 0.000000 1.000000 0.000000
vn 0.000000 1.000000 0.000000
vn 0.000000 1.000000 0.000000
vn -0.000090 0.000000 -1.000000
vn -0.000019 0.000000 -1.000000
vn -0.000004 0.000000 -1.000000
vn -0.000090 0.000000 -1.000000
vn 0.000001 0.000000 -1.000000
vn 0.000000 0.000000 -1.000000
vn 0.000005 0.000000 -1.000000
vn 0.000005 0.000000 -1.000000
vn 0.000000 0.000000 1.000000
vn 0.000000 0.000000 1.000000
vn 0.000000 0.000000 1.000000
vn 0.000000 0.000000 1.000000
vn -1.000000 0.000000 0.000000
vn -1.000000 0.000000 0.000000
vn -1.000000 0.000000 0.000000
vn -1.000000 0.000000 0.000000
vn 0.000000 -1.000000 0.000000
vn 0.000000 -1.000000 0.000000
vn 0.000000 -1.000000 0.000000
vn 0.000000 -1.000000 0.000000
vn 1.000000 0.000000 0.000000
vn 1.000000 0.000000 0.000000
vn 1.000000 0.000000 0.000000
vn 1.000000 0.000000 0.000000
vn 0.000000 1.000000 0.000000
vn 0.000000 1.000000 0.000000
vn 0.000000 1.000000 0.000000
vn 0.000000 1.000000 0.000000
vn 0.000000 0.000000 0.000000
vn 1.000000 0.000000 0.000000
vn 0.000000 0.000000 0.000000
vn 1.000000 0.000000 0.000000
vn 0.000000 0.000000 -1.000000
vn 0.000000 0.000000 -1.000000
vn 0.000000 0.000000 -1.000000
vn 0.000000 0.000000 -1.000000
vn -1.000000 0.000000 0.000000
vn -0.000000 0.000000 0.000000
vn -1.000000 0.000000 0.000000
vn -0.000000 0.000000 0.000000
vn 0.000000 0.000000 1.000000
vn 0.000000 0.000000 1.000000
vn 0.000000 0.000000 1.000000
vn 0.000000 0.000000 1.000000
vn -1.000000 0.000000 0.000000
vn -1.000000 0.000000 0.000000
vn -1.000000 0.000000 0.000000
vn -1.000000 0.000000 0.000000
vn 0.000000 -1.000000 0.000000
vn 0.000000 -1.000000 0.000000
vn 0.000000 -1.000000 0.000000
vn 0.000000 -1.000000 0.000000
vn 1.000000 0.000000 0.000000
vn 1.000000 0.000000 0.000000
vn 1.000000 0.000000 0.000000
vn 1.000000 0.000000 0.000000
vn 0.000000 1.000000 0.000000
vn 0.000000 1.000000 0.000000
vn 0.000000 1.000000 0.000000
vn 0.000000 1.000000 0.000000
vn 0.000000 0.000000 0.000000
vn 0.000000 0.000000 0.000000
vn 0.000000 0.000000 0.000000
vn 0.000000 0.000000 0.000000
vn 0.000000 0.000000 -1.000000
vn 0.000000 0.000000 -1.000000
vn 0.000000 0.000000 -1.000000
vn 0.000000 0.000000 -1.000000
vn -0.000000 0.000000 0.000000
vn -0.000000 0.000000 0.000000
vn -0.000000 0.000000 0.000000
vn -0.000000 0.000000 0.000000
vn 0.000000 0.000000 1.000000
vn 0.000000 0.000000 1.000000
vn 0.000000 0.000000 1.000000
vn 0.000000 0.000000 1.000000
vn -1.000000 0.000000 0.000000
vn -1.000000 0.000000 0.000000
vn -1.000000 0.000000 0.000000
vn -1.000000 0.000000 0.000000
vn 0.000000 -1.000000 0.000000
vn 0.000000 -1.000000 0.000000
vn 0.000000 -1.000000 0.000000
vn 0.000000 -1.000000 0.000000
vn 1.000000 0.000000 0.000000
vn 1.000000 0.000000 0.000000
vn 1.000000 0.000000 0.000000
vn 1.000000 0.000000 0.000000
vn 0.000000 1.000000 0.000000
vn 0.000000 1.000000 0.000000
vn 0.000000 1.000000 0.000000
vn 0.000000 1.000000 0.000000
vn -0.000000 0.000000 0.000000
vn -0.000000 0.000000 0.000000
vn -1.000000 0.000000 0.000000
vn -1.000000 0.000000 0.000000
vn 0.000000 0.000000 -1.000000
vn 0.000000 0.000000 -1.000000
vn 0.000000 0.000000 -1.000000
vn 0.000000 0.000000 -1.000000
vn 0.000000 0.000000 0.000000
vn 0.000000 0.000000 0.000000
vn 0.000000 0.000000 0.000000
vn 0.000000 0.000000 0.000000
vn 0.000000 0.000000 1.000000
vn 0.000000 0.000000 1.000000
vn 0.000000 0.000000 1.000000
vn 0.000000 0.000000 1.000000
vn -1.000000 0.000000 0.000000
vn -1.000000 0.000000 0.000000
vn 0.000000 -1.000000 0.000000
vn 0.000000 -1.000000 0.000000
vn 0.000000 -1.000000 0.000000
vn 0.000000 -1.000000 0.000000
vn 1.000000 0.000000 0.000000
vn 1.000000 0.000000 0.000000
vn 1.000000 0.000000 0.000000
vn 1.000000 0.000000 0.000000
vn 0.000000 1.000000 0.000000
vn 0.000000 1.000000 0.000000
vn 0.000000 1.000000 0.000000
vn 0.000000 1.000000 0.000000
vn 0.000000 0.000000 -1.000000
vn 0.000000 0.000000 -1.000000
vn 0.000000 0.000000 -1.000000
vn 0.000000 0.000000 -1.000000
s off
g polySurface82 polySurface63 polySurface41
usemtl lambert17SG
f 63/165/1 64/166/2 65/167/3 66/168/4
usemtl lambert3SG
f 2/169/5 1/170/6 5/171/7 4/172/8
f 3/9/9 4/10/10 8/11/11 7/12/12
f 4/101/13 5/102/14 9/103/15 8/104/16
f 5/13/17 6/14/18 10/15/19 9/16/20
usemtl lambert17SG
f 6/105/21 3/106/22 7/107/23 10/108/24
usemtl lambert3SG
f 7/17/25 8/18/26 12/19/27 11/20/28
f 8/173/29 9/174/30 13/175/31 12/176/32
f 9/21/33 10/22/34 14/23/35 13/24/36
usemtl lambert17SG
f 10/177/37 7/178/38 11/179/39 14/180/40
usemtl lambert3SG
f 11/25/41 12/26/42 16/27/43 15/28/44
f 12/109/45 13/110/46 17/111/47 16/112/48
s 1
f 13/29/49 14/30/50 18/31/51 17/32/52
s off
usemtl lambert17SG
f 14/113/53 11/114/54 15/115/55 18/116/56
usemtl lambert3SG
f 15/33/57 16/34/58 20/35/59 19/36/60
f 16/181/61 17/182/62 21/183/63 20/184/64
s 1
f 17/37/52 18/38/51 22/39/65 21/40/66
s off
usemtl lambert17SG
f 18/185/67 15/186/68 19/187/69 22/188/70
s 2
usemtl lambert3SG
f 19/41/71 20/42/72 24/43/73 23/44/74
s off
f 20/117/75 21/118/76 25/119/77 24/120/78
s 3
f 21/49/79 22/50/80 26/51/81 25/52/82
s off
usemtl lambert17SG
f 22/121/83 19/122/84 23/123/85 26/124/86
s 2
usemtl lambert3SG
f 23/44/74 24/43/73 28/45/87 27/46/88
s off
f 24/189/89 25/190/90 29/191/91 28/192/92
s 3
f 25/52/82 26/51/81 30/53/93 29/54/94
s off
usemtl lambert17SG
f 26/193/95 23/194/96 27/195/97 30/196/98
s 2
usemtl lambert3SG
f 27/46/88 28/45/87 32/47/99 31/48/100
s off
f 28/125/101 29/126/102 33/127/103 32/128/104
s 3
f 29/54/94 30/53/93 34/55/105 33/56/106
s off
usemtl lambert17SG
f 30/129/107 27/130/108 31/131/109 34/132/110
s 4
usemtl lambert3SG
f 31/197/111 32/198/112 36/199/113 35/200/114
f 32/198/112 33/201/115 37/202/116 36/199/113
f 33/201/115 34/203/117 38/204/118 37/202/116
s off
usemtl lambert17SG
f 34/205/119 31/206/120 35/207/121 38/208/122
usemtl lambert3SG
f 35/57/123 36/58/124 40/59/125 39/60/126
f 36/133/127 37/134/128 41/135/129 40/136/130
f 37/61/131 38/62/132 42/63/133 41/64/134
usemtl lambert17SG
f 38/137/135 35/138/136 39/139/137 42/140/138
usemtl lambert3SG
f 39/65/139 40/66/140 44/67/141 43/68/142
f 40/209/143 41/210/144 45/211/145 44/212/146
f 41/69/147 42/70/148 46/71/149 45/72/150
usemtl lambert17SG
f 42/213/151 39/214/152 43/215/153 46/216/154
usemtl lambert3SG
f 43/73/155 44/74/156 48/75/157 47/76/158
f 44/141/159 45/142/160 49/143/161 48/144/162
f 45/77/163 46/78/164 50/79/165 49/80/166
usemtl lambert17SG
f 46/145/167 43/146/168 47/147/169 50/148/170
usemtl lambert3SG
f 47/1/171 48/2/172 52/3/173 51/4/174
f 48/217/175 49/218/176 53/219/177 52/220/178
f 49/81/179 50/82/180 54/83/181 53/84/182
usemtl lambert17SG
f 50/221/183 47/222/184 51/223/185 54/224/186
usemtl lambert3SG
f 51/85/187 52/86/188 56/87/189 55/88/190
f 52/149/191 53/150/192 57/151/193 56/152/194
f 53/93/195 54/94/196 58/95/197 57/96/198
usemtl lambert17SG
f 54/153/199 51/154/200 55/155/201 58/156/202
s 5
usemtl lambert3SG
f 55/88/203 56/87/204 60/89/205 59/90/206
s off
f 56/225/207 57/226/208 61/227/209 60/228/210
f 57/5/211 58/6/212 62/7/213 61/8/214
usemtl lambert17SG
f 58/229/215 55/230/216 59/231/217 62/232/218
s 5
usemtl lambert3SG
f 59/90/206 60/89/205 64/91/219 63/92/220
s off
f 60/157/221 61/158/222 65/159/223 64/160/224
f 61/97/225 62/98/226 66/99/227 65/100/228
usemtl lambert17SG
f 62/161/229 59/162/230 63/163/231 66/164/232
usemtl lambert3SG
f 4/233/233 3/234/234 6/235/235 5/236/236
